<svg width="512" height="512" viewBox="0 0 512 512" fill="none" xmlns="http://www.w3.org/2000/svg">
<g clip-path="url(#clip0_24_38)">
<path d="M0 32C0 14.3269 14.3269 0 32 0H480C497.673 0 512 14.3269 512 32V480C512 497.673 497.673 512 480 512H32C14.3269 512 0 497.673 0 480V32Z" fill="#7F00FF"/>
<circle cx="256" cy="256" r="230" fill="white"/>
<path d="M436 254.24V283.885C422.16 283.885 412.519 286.888 407.079 292.895C401.639 298.816 398.919 308.349 398.919 321.495V346.046C398.919 363.546 396.519 377.301 391.719 387.313C386.999 397.326 380.478 404.682 372.158 409.383C363.918 414.085 354.358 417.045 343.477 418.264C332.677 419.57 321.117 420.223 308.796 420.223V373.34C318.397 373.34 325.557 372.078 330.277 369.553C335.077 367.028 338.277 363.197 339.877 358.061C341.477 352.924 342.277 346.438 342.277 338.603V305.171C342.277 298.554 343.517 292.199 345.997 286.105C348.477 280.01 353.038 274.612 359.678 269.911C366.318 265.123 375.758 261.336 387.999 258.55C400.319 255.677 416.319 254.24 436 254.24ZM308.796 91C321.117 91 332.677 91.653 343.477 92.9589C354.358 94.1777 363.918 97.1378 372.158 101.839C380.478 106.54 386.999 113.897 391.719 123.909C396.519 133.921 398.919 147.677 398.919 165.176V189.858C398.919 202.917 401.639 212.451 407.079 218.458C412.519 224.465 422.16 227.469 436 227.469V256.983C416.319 256.983 400.319 255.59 387.999 252.804C375.758 250.018 366.318 246.23 359.678 241.442C353.038 236.654 348.477 231.212 345.997 225.118C343.517 219.024 342.277 212.668 342.277 206.052V172.62C342.277 164.785 341.477 158.298 339.877 153.162C338.277 148.025 335.077 144.195 330.277 141.67C325.557 139.145 318.397 137.883 308.796 137.883V91ZM436 227.469V283.885H388.119V227.469H436Z" fill="#7F00FF"/>
<path d="M76 256.983V227.469C89.9204 227.469 99.5607 224.465 104.921 218.458C110.361 212.451 113.081 202.917 113.081 189.858V165.176C113.081 147.677 115.441 133.921 120.161 123.909C124.961 113.897 131.482 106.54 139.722 101.839C148.042 97.1378 157.642 94.1777 168.523 92.9589C179.403 91.653 190.963 91 203.204 91V137.883C193.603 137.883 186.403 139.145 181.603 141.67C176.883 144.195 173.723 148.025 172.123 153.162C170.523 158.298 169.723 164.785 169.723 172.62V206.052C169.723 212.668 168.483 219.024 166.003 225.118C163.523 231.212 158.962 236.654 152.322 241.442C145.682 246.23 136.202 250.018 123.881 252.804C111.641 255.59 95.6806 256.983 76 256.983ZM203.204 420.223C190.963 420.223 179.403 419.57 168.523 418.264C157.642 417.045 148.042 414.085 139.722 409.383C131.482 404.682 124.961 397.326 120.161 387.313C115.441 377.301 113.081 363.546 113.081 346.046V321.495C113.081 308.349 110.361 298.816 104.921 292.895C99.5607 286.888 89.9204 283.885 76 283.885V254.24C95.6806 254.24 111.641 255.677 123.881 258.55C136.202 261.336 145.682 265.123 152.322 269.911C158.962 274.612 163.523 280.01 166.003 286.105C168.483 292.199 169.723 298.554 169.723 305.171V338.603C169.723 346.438 170.523 352.924 172.123 358.061C173.723 363.197 176.883 367.028 181.603 369.553C186.403 372.078 193.603 373.34 203.204 373.34V420.223ZM76 283.885V227.469H123.881V283.885H76Z" fill="#7F00FF"/>
<circle cx="256" cy="256" r="36" fill="#7F00FF"/>
</g>
<defs>
<clipPath id="clip0_24_38">
<rect width="512" height="512" fill="white"/>
</clipPath>
</defs>
</svg>
